<?xml version="1.0" encoding="UTF-8" standalone="no"?>
<!DOCTYPE svg PUBLIC "-//W3C//DTD SVG 1.1//EN"
 "http://www.w3.org/Graphics/SVG/1.1/DTD/svg11.dtd">
<!-- Generated by graphviz version 2.28.0 (20110821.1312)
 -->
<!-- Title: ladder_oob Pages: 1 -->
<svg width="307pt" height="612pt"
 viewBox="0.00 0.00 307.00 612.00" xmlns="http://www.w3.org/2000/svg" xmlns:xlink="http://www.w3.org/1999/xlink">
<g id="graph1" class="graph" transform="scale(1 1) rotate(0) translate(4 608)">
<title>ladder_oob</title>
<polygon fill="white" stroke="white" points="-4,5 -4,-608 304,-608 304,5 -4,5"/>
<!-- i0 -->
<g id="node2" class="node"><title>i0</title>
<polygon fill="deeppink" stroke="black" points="-0.220083,-560.67 56,-537.572 112.22,-560.67 112.168,-598.044 -0.167608,-598.044 -0.220083,-560.67"/>
<text text-anchor="middle" x="56" y="-574.8" font-family="Helvetica,sans-Serif" font-size="14.00">Issuer</text>
<text text-anchor="middle" x="56" y="-559.8" font-family="Helvetica,sans-Serif" font-size="14.00">(Parent)</text>
</g>
<!-- s0 -->
<g id="node3" class="node"><title>s0</title>
<polygon fill="cornflowerblue" stroke="black" points="186.78,-560.67 243,-537.572 299.22,-560.67 299.168,-598.044 186.832,-598.044 186.78,-560.67"/>
<text text-anchor="middle" x="243" y="-574.8" font-family="Helvetica,sans-Serif" font-size="14.00">Subject</text>
<text text-anchor="middle" x="243" y="-559.8" font-family="Helvetica,sans-Serif" font-size="14.00">(Child)</text>
</g>
<!-- i0&#45;&gt;s0 -->
<!-- i1 -->
<g id="node5" class="node"><title>i1</title>
<ellipse fill="black" stroke="black" cx="56" cy="-483" rx="1.8" ry="1.8"/>
</g>
<!-- i0&#45;&gt;i1 -->
<g id="edge41" class="edge"><title>i0&#45;&gt;i1</title>
<path fill="none" stroke="lightgray" stroke-dasharray="5,2" d="M56,-537.487C56,-516.178 56,-491.209 56,-485.299"/>
</g>
<!-- s1 -->
<g id="node8" class="node"><title>s1</title>
<ellipse fill="thistle" stroke="thistle" cx="243" cy="-483" rx="30.3206" ry="18"/>
<text text-anchor="middle" x="243" y="-479.3" font-family="Helvetica,sans-Serif" font-size="14.00">Start</text>
</g>
<!-- s0&#45;&gt;s1 -->
<g id="edge43" class="edge"><title>s0&#45;&gt;s1</title>
<path fill="none" stroke="lightgray" stroke-dasharray="5,2" d="M243,-537.487C243,-525.12 243,-511.52 243,-501.129"/>
</g>
<!-- m1 -->
<g id="node7" class="node"><title>m1</title>
<polygon fill="lightgrey" stroke="lightgrey" points="120,-465 150,-465 162,-477 162,-489 150,-501 120,-501 108,-489 108,-477 120,-465"/>
<path fill="lightgrey" stroke="lightgrey" d="M150,-465C156,-465 162,-471 162,-477"/>
<path fill="lightgrey" stroke="lightgrey" d="M162,-489C162,-495 156,-501 150,-501"/>
<path fill="lightgrey" stroke="lightgrey" d="M120,-501C114,-501 108,-495 108,-489"/>
<path fill="lightgrey" stroke="lightgrey" d="M108,-477C108,-471 114,-465 120,-465"/>
<polyline fill="none" stroke="black" points="120,-465 150,-465 "/>
<path fill="none" stroke="black" d="M150,-465C156,-465 162,-471 162,-477"/>
<polyline fill="none" stroke="black" points="162,-477 162,-489 "/>
<path fill="none" stroke="black" d="M162,-489C162,-495 156,-501 150,-501"/>
<polyline fill="none" stroke="black" points="150,-501 120,-501 "/>
<path fill="none" stroke="black" d="M120,-501C114,-501 108,-495 108,-489"/>
<polyline fill="none" stroke="black" points="108,-489 108,-477 "/>
<path fill="none" stroke="black" d="M108,-477C108,-471 114,-465 120,-465"/>
<text text-anchor="middle" x="135" y="-479.3" font-family="Helvetica,sans-Serif" font-size="14.00">List</text>
</g>
<!-- i1&#45;&gt;m1 -->
<g id="edge4" class="edge"><title>i1&#45;&gt;m1</title>
<path fill="none" stroke="black" d="M68.0131,-483C81.3012,-483 94.5894,-483 107.878,-483"/>
<polygon fill="black" stroke="black" points="57.8516,-483 67.8516,-478.5 62.8516,-483 67.8516,-483 67.8516,-483 67.8516,-483 62.8516,-483 67.8515,-487.5 57.8516,-483 57.8516,-483"/>
</g>
<!-- i2 -->
<g id="node10" class="node"><title>i2</title>
<ellipse fill="black" stroke="black" cx="56" cy="-404" rx="1.8" ry="1.8"/>
</g>
<!-- i1&#45;&gt;i2 -->
<g id="edge31" class="edge"><title>i1&#45;&gt;i2</title>
<path fill="none" stroke="black" d="M56,-481.135C56,-473.271 56,-414.224 56,-405.96"/>
</g>
<!-- m1&#45;&gt;s1 -->
<g id="edge5" class="edge"><title>m1&#45;&gt;s1</title>
<path fill="none" stroke="black" d="M172.588,-483C185.881,-483 199.175,-483 212.468,-483"/>
<polygon fill="black" stroke="black" points="162.422,-483 172.422,-478.5 167.422,-483 172.422,-483 172.422,-483 172.422,-483 167.422,-483 172.422,-487.5 162.422,-483 162.422,-483"/>
</g>
<!-- s2 -->
<g id="node13" class="node"><title>s2</title>
<ellipse fill="black" stroke="black" cx="243" cy="-404" rx="1.8" ry="1.8"/>
</g>
<!-- s1&#45;&gt;s2 -->
<g id="edge45" class="edge"><title>s1&#45;&gt;s2</title>
<path fill="none" stroke="lightgray" stroke-dasharray="5,2" d="M243,-464.911C243,-444.353 243,-411.852 243,-405.939"/>
</g>
<!-- m2 -->
<g id="node12" class="node"><title>m2</title>
<polygon fill="lightgrey" stroke="lightgrey" points="110,-381 190,-381 202,-393 202,-415 190,-427 110,-427 98,-415 98,-393 110,-381"/>
<path fill="lightgrey" stroke="lightgrey" d="M190,-381C196,-381 202,-387 202,-393"/>
<path fill="lightgrey" stroke="lightgrey" d="M202,-415C202,-421 196,-427 190,-427"/>
<path fill="lightgrey" stroke="lightgrey" d="M110,-427C104,-427 98,-421 98,-415"/>
<path fill="lightgrey" stroke="lightgrey" d="M98,-393C98,-387 104,-381 110,-381"/>
<polyline fill="none" stroke="black" points="110,-381 190,-381 "/>
<path fill="none" stroke="black" d="M190,-381C196,-381 202,-387 202,-393"/>
<polyline fill="none" stroke="black" points="202,-393 202,-415 "/>
<path fill="none" stroke="black" d="M202,-415C202,-421 196,-427 190,-427"/>
<polyline fill="none" stroke="black" points="190,-427 110,-427 "/>
<path fill="none" stroke="black" d="M110,-427C104,-427 98,-421 98,-415"/>
<polyline fill="none" stroke="black" points="98,-415 98,-393 "/>
<path fill="none" stroke="black" d="M98,-393C98,-387 104,-381 110,-381"/>
<text text-anchor="middle" x="150" y="-411.8" font-family="Helvetica,sans-Serif" font-size="14.00">List Response</text>
<polyline fill="none" stroke="black" points="98,-404 202,-404 "/>
<text text-anchor="middle" x="150" y="-388.8" font-family="Helvetica,sans-Serif" font-size="14.00">Classes A, B</text>
</g>
<!-- i2&#45;&gt;m2 -->
<g id="edge8" class="edge"><title>i2&#45;&gt;m2</title>
<path fill="none" stroke="black" d="M57.8359,-404C67.7223,-404 77.6087,-404 87.4951,-404"/>
<polygon fill="black" stroke="black" points="97.7977,-404 87.7977,-408.5 92.7977,-404 87.7977,-404 87.7977,-404 87.7977,-404 92.7977,-404 87.7977,-399.5 97.7977,-404 97.7977,-404"/>
</g>
<!-- i3 -->
<g id="node15" class="node"><title>i3</title>
<ellipse fill="black" stroke="black" cx="56" cy="-320" rx="1.8" ry="1.8"/>
</g>
<!-- i2&#45;&gt;i3 -->
<g id="edge47" class="edge"><title>i2&#45;&gt;i3</title>
<path fill="none" stroke="lightgray" stroke-dasharray="5,2" d="M56,-402.079C56,-393.633 56,-329.762 56,-321.812"/>
</g>
<!-- m2&#45;&gt;s2 -->
<g id="edge9" class="edge"><title>m2&#45;&gt;s2</title>
<path fill="none" stroke="black" d="M202.312,-404C211.806,-404 221.299,-404 230.792,-404"/>
<polygon fill="black" stroke="black" points="241.093,-404 231.093,-408.5 236.093,-404 231.093,-404 231.093,-404 231.093,-404 236.093,-404 231.093,-399.5 241.093,-404 241.093,-404"/>
</g>
<!-- s3 -->
<g id="node18" class="node"><title>s3</title>
<ellipse fill="black" stroke="black" cx="243" cy="-320" rx="1.8" ry="1.8"/>
</g>
<!-- s2&#45;&gt;s3 -->
<g id="edge33" class="edge"><title>s2&#45;&gt;s3</title>
<path fill="none" stroke="black" d="M243,-402.079C243,-393.633 243,-329.762 243,-321.812"/>
</g>
<!-- m3 -->
<g id="node17" class="node"><title>m3</title>
<polygon fill="lightgrey" stroke="lightgrey" points="130.5,-297 169.5,-297 181.5,-309 181.5,-331 169.5,-343 130.5,-343 118.5,-331 118.5,-309 130.5,-297"/>
<path fill="lightgrey" stroke="lightgrey" d="M169.5,-297C175.5,-297 181.5,-303 181.5,-309"/>
<path fill="lightgrey" stroke="lightgrey" d="M181.5,-331C181.5,-337 175.5,-343 169.5,-343"/>
<path fill="lightgrey" stroke="lightgrey" d="M130.5,-343C124.5,-343 118.5,-337 118.5,-331"/>
<path fill="lightgrey" stroke="lightgrey" d="M118.5,-309C118.5,-303 124.5,-297 130.5,-297"/>
<polyline fill="none" stroke="black" points="130.5,-297 169.5,-297 "/>
<path fill="none" stroke="black" d="M169.5,-297C175.5,-297 181.5,-303 181.5,-309"/>
<polyline fill="none" stroke="black" points="181.5,-309 181.5,-331 "/>
<path fill="none" stroke="black" d="M181.5,-331C181.5,-337 175.5,-343 169.5,-343"/>
<polyline fill="none" stroke="black" points="169.5,-343 130.5,-343 "/>
<path fill="none" stroke="black" d="M130.5,-343C124.5,-343 118.5,-337 118.5,-331"/>
<polyline fill="none" stroke="black" points="118.5,-331 118.5,-309 "/>
<path fill="none" stroke="black" d="M118.5,-309C118.5,-303 124.5,-297 130.5,-297"/>
<text text-anchor="middle" x="150" y="-327.8" font-family="Helvetica,sans-Serif" font-size="14.00">Issue</text>
<polyline fill="none" stroke="black" points="118.5,-320 181.5,-320 "/>
<text text-anchor="middle" x="150" y="-304.8" font-family="Helvetica,sans-Serif" font-size="14.00">Class A</text>
</g>
<!-- i3&#45;&gt;m3 -->
<g id="edge12" class="edge"><title>i3&#45;&gt;m3</title>
<path fill="none" stroke="black" d="M68.2314,-320C84.9271,-320 101.623,-320 118.319,-320"/>
<polygon fill="black" stroke="black" points="57.8359,-320 67.836,-315.5 62.8359,-320 67.8359,-320 67.8359,-320 67.8359,-320 62.8359,-320 67.8359,-324.5 57.8359,-320 57.8359,-320"/>
</g>
<!-- i4 -->
<g id="node20" class="node"><title>i4</title>
<ellipse fill="black" stroke="black" cx="56" cy="-225" rx="1.8" ry="1.8"/>
</g>
<!-- i3&#45;&gt;i4 -->
<g id="edge35" class="edge"><title>i3&#45;&gt;i4</title>
<path fill="none" stroke="black" d="M56,-317.956C56,-308.377 56,-235.938 56,-226.92"/>
</g>
<!-- m3&#45;&gt;s3 -->
<g id="edge13" class="edge"><title>m3&#45;&gt;s3</title>
<path fill="none" stroke="black" d="M191.828,-320C208.246,-320 224.664,-320 241.081,-320"/>
<polygon fill="black" stroke="black" points="181.605,-320 191.606,-315.5 186.605,-320 191.605,-320 191.605,-320 191.605,-320 186.605,-320 191.605,-324.5 181.605,-320 181.605,-320"/>
</g>
<!-- s4 -->
<g id="node23" class="node"><title>s4</title>
<ellipse fill="black" stroke="black" cx="243" cy="-225" rx="1.8" ry="1.8"/>
</g>
<!-- s3&#45;&gt;s4 -->
<g id="edge49" class="edge"><title>s3&#45;&gt;s4</title>
<path fill="none" stroke="lightgray" stroke-dasharray="5,2" d="M243,-317.956C243,-308.377 243,-235.938 243,-226.92"/>
</g>
<!-- m4 -->
<g id="node22" class="node"><title>m4</title>
<polygon fill="lightgrey" stroke="lightgrey" points="104.5,-190.5 195.5,-190.5 207.5,-202.5 207.5,-247.5 195.5,-259.5 104.5,-259.5 92.5,-247.5 92.5,-202.5 104.5,-190.5"/>
<path fill="lightgrey" stroke="lightgrey" d="M195.5,-190.5C201.5,-190.5 207.5,-196.5 207.5,-202.5"/>
<path fill="lightgrey" stroke="lightgrey" d="M207.5,-247.5C207.5,-253.5 201.5,-259.5 195.5,-259.5"/>
<path fill="lightgrey" stroke="lightgrey" d="M104.5,-259.5C98.5,-259.5 92.5,-253.5 92.5,-247.5"/>
<path fill="lightgrey" stroke="lightgrey" d="M92.5,-202.5C92.5,-196.5 98.5,-190.5 104.5,-190.5"/>
<polyline fill="none" stroke="black" points="104.5,-190.5 195.5,-190.5 "/>
<path fill="none" stroke="black" d="M195.5,-190.5C201.5,-190.5 207.5,-196.5 207.5,-202.5"/>
<polyline fill="none" stroke="black" points="207.5,-202.5 207.5,-247.5 "/>
<path fill="none" stroke="black" d="M207.5,-247.5C207.5,-253.5 201.5,-259.5 195.5,-259.5"/>
<polyline fill="none" stroke="black" points="195.5,-259.5 104.5,-259.5 "/>
<path fill="none" stroke="black" d="M104.5,-259.5C98.5,-259.5 92.5,-253.5 92.5,-247.5"/>
<polyline fill="none" stroke="black" points="92.5,-247.5 92.5,-202.5 "/>
<path fill="none" stroke="black" d="M92.5,-202.5C92.5,-196.5 98.5,-190.5 104.5,-190.5"/>
<text text-anchor="middle" x="150" y="-244.3" font-family="Helvetica,sans-Serif" font-size="14.00">Issue Response</text>
<polyline fill="none" stroke="black" points="92.5,-236.5 207.5,-236.5 "/>
<text text-anchor="middle" x="150" y="-221.3" font-family="Helvetica,sans-Serif" font-size="14.00">Class A</text>
<polyline fill="none" stroke="black" points="92.5,-213.5 207.5,-213.5 "/>
<text text-anchor="middle" x="150" y="-198.3" font-family="Helvetica,sans-Serif" font-size="14.00">Certificate</text>
</g>
<!-- i4&#45;&gt;m4 -->
<g id="edge16" class="edge"><title>i4&#45;&gt;m4</title>
<path fill="none" stroke="black" d="M57.8359,-225C65.9363,-225 74.0367,-225 82.137,-225"/>
<polygon fill="black" stroke="black" points="92.3975,-225 82.3975,-229.5 87.3975,-225 82.3975,-225 82.3975,-225 82.3975,-225 87.3975,-225 82.3974,-220.5 92.3975,-225 92.3975,-225"/>
</g>
<!-- i5 -->
<g id="node25" class="node"><title>i5</title>
<ellipse fill="black" stroke="black" cx="56" cy="-130" rx="1.8" ry="1.8"/>
</g>
<!-- i4&#45;&gt;i5 -->
<g id="edge51" class="edge"><title>i4&#45;&gt;i5</title>
<path fill="none" stroke="lightgray" stroke-dasharray="5,2" d="M56,-222.956C56,-213.377 56,-140.938 56,-131.92"/>
</g>
<!-- m4&#45;&gt;s4 -->
<g id="edge17" class="edge"><title>m4&#45;&gt;s4</title>
<path fill="none" stroke="black" d="M207.762,-225C215.482,-225 223.203,-225 230.923,-225"/>
<polygon fill="black" stroke="black" points="241.073,-225 231.073,-229.5 236.073,-225 231.073,-225 231.073,-225 231.073,-225 236.073,-225 231.073,-220.5 241.073,-225 241.073,-225"/>
</g>
<!-- s5 -->
<g id="node28" class="node"><title>s5</title>
<ellipse fill="black" stroke="black" cx="243" cy="-130" rx="1.8" ry="1.8"/>
</g>
<!-- s4&#45;&gt;s5 -->
<g id="edge37" class="edge"><title>s4&#45;&gt;s5</title>
<path fill="none" stroke="black" d="M243,-222.956C243,-213.377 243,-140.938 243,-131.92"/>
</g>
<!-- m5 -->
<g id="node27" class="node"><title>m5</title>
<polygon fill="lightgrey" stroke="lightgrey" points="130,-107 170,-107 182,-119 182,-141 170,-153 130,-153 118,-141 118,-119 130,-107"/>
<path fill="lightgrey" stroke="lightgrey" d="M170,-107C176,-107 182,-113 182,-119"/>
<path fill="lightgrey" stroke="lightgrey" d="M182,-141C182,-147 176,-153 170,-153"/>
<path fill="lightgrey" stroke="lightgrey" d="M130,-153C124,-153 118,-147 118,-141"/>
<path fill="lightgrey" stroke="lightgrey" d="M118,-119C118,-113 124,-107 130,-107"/>
<polyline fill="none" stroke="black" points="130,-107 170,-107 "/>
<path fill="none" stroke="black" d="M170,-107C176,-107 182,-113 182,-119"/>
<polyline fill="none" stroke="black" points="182,-119 182,-141 "/>
<path fill="none" stroke="black" d="M182,-141C182,-147 176,-153 170,-153"/>
<polyline fill="none" stroke="black" points="170,-153 130,-153 "/>
<path fill="none" stroke="black" d="M130,-153C124,-153 118,-147 118,-141"/>
<polyline fill="none" stroke="black" points="118,-141 118,-119 "/>
<path fill="none" stroke="black" d="M118,-119C118,-113 124,-107 130,-107"/>
<text text-anchor="middle" x="150" y="-137.8" font-family="Helvetica,sans-Serif" font-size="14.00">Issue</text>
<polyline fill="none" stroke="black" points="118,-130 182,-130 "/>
<text text-anchor="middle" x="150" y="-114.8" font-family="Helvetica,sans-Serif" font-size="14.00">Class B</text>
</g>
<!-- i5&#45;&gt;m5 -->
<g id="edge20" class="edge"><title>i5&#45;&gt;m5</title>
<path fill="none" stroke="black" d="M68.1695,-130C84.7659,-130 101.362,-130 117.959,-130"/>
<polygon fill="black" stroke="black" points="57.8359,-130 67.836,-125.5 62.8359,-130 67.8359,-130 67.8359,-130 67.8359,-130 62.8359,-130 67.8359,-134.5 57.8359,-130 57.8359,-130"/>
</g>
<!-- i6 -->
<g id="node30" class="node"><title>i6</title>
<ellipse fill="black" stroke="black" cx="56" cy="-35" rx="1.8" ry="1.8"/>
</g>
<!-- i5&#45;&gt;i6 -->
<g id="edge39" class="edge"><title>i5&#45;&gt;i6</title>
<path fill="none" stroke="black" d="M56,-127.956C56,-118.377 56,-45.9379 56,-36.9205"/>
</g>
<!-- m5&#45;&gt;s5 -->
<g id="edge21" class="edge"><title>m5&#45;&gt;s5</title>
<path fill="none" stroke="black" d="M192.433,-130C208.657,-130 224.881,-130 241.104,-130"/>
<polygon fill="black" stroke="black" points="182.332,-130 192.332,-125.5 187.332,-130 192.332,-130 192.332,-130 192.332,-130 187.332,-130 192.332,-134.5 182.332,-130 182.332,-130"/>
</g>
<!-- s6 -->
<g id="node33" class="node"><title>s6</title>
<ellipse fill="thistle" stroke="thistle" cx="243" cy="-35" rx="34.1708" ry="18"/>
<text text-anchor="middle" x="243" y="-31.3" font-family="Helvetica,sans-Serif" font-size="14.00">Sleep</text>
</g>
<!-- s5&#45;&gt;s6 -->
<g id="edge53" class="edge"><title>s5&#45;&gt;s6</title>
<path fill="none" stroke="lightgray" stroke-dasharray="5,2" d="M243,-127.956C243,-120.732 243,-77.7548 243,-53.1931"/>
</g>
<!-- m6 -->
<g id="node32" class="node"><title>m6</title>
<polygon fill="lightgrey" stroke="lightgrey" points="87.5,-0.5 178.5,-0.5 190.5,-12.5 190.5,-57.5 178.5,-69.5 87.5,-69.5 75.5,-57.5 75.5,-12.5 87.5,-0.5"/>
<path fill="lightgrey" stroke="lightgrey" d="M178.5,-0.5C184.5,-0.5 190.5,-6.5 190.5,-12.5"/>
<path fill="lightgrey" stroke="lightgrey" d="M190.5,-57.5C190.5,-63.5 184.5,-69.5 178.5,-69.5"/>
<path fill="lightgrey" stroke="lightgrey" d="M87.5,-69.5C81.5,-69.5 75.5,-63.5 75.5,-57.5"/>
<path fill="lightgrey" stroke="lightgrey" d="M75.5,-12.5C75.5,-6.5 81.5,-0.5 87.5,-0.5"/>
<polyline fill="none" stroke="black" points="87.5,-0.5 178.5,-0.5 "/>
<path fill="none" stroke="black" d="M178.5,-0.5C184.5,-0.5 190.5,-6.5 190.5,-12.5"/>
<polyline fill="none" stroke="black" points="190.5,-12.5 190.5,-57.5 "/>
<path fill="none" stroke="black" d="M190.5,-57.5C190.5,-63.5 184.5,-69.5 178.5,-69.5"/>
<polyline fill="none" stroke="black" points="178.5,-69.5 87.5,-69.5 "/>
<path fill="none" stroke="black" d="M87.5,-69.5C81.5,-69.5 75.5,-63.5 75.5,-57.5"/>
<polyline fill="none" stroke="black" points="75.5,-57.5 75.5,-12.5 "/>
<path fill="none" stroke="black" d="M75.5,-12.5C75.5,-6.5 81.5,-0.5 87.5,-0.5"/>
<text text-anchor="middle" x="133" y="-54.3" font-family="Helvetica,sans-Serif" font-size="14.00">Issue Response</text>
<polyline fill="none" stroke="black" points="75.5,-46.5 190.5,-46.5 "/>
<text text-anchor="middle" x="133" y="-31.3" font-family="Helvetica,sans-Serif" font-size="14.00">Class B</text>
<polyline fill="none" stroke="black" points="75.5,-23.5 190.5,-23.5 "/>
<text text-anchor="middle" x="133" y="-8.3" font-family="Helvetica,sans-Serif" font-size="14.00">Certificate</text>
</g>
<!-- i6&#45;&gt;m6 -->
<g id="edge24" class="edge"><title>i6&#45;&gt;m6</title>
<path fill="none" stroke="black" d="M57.8047,-35C60.283,-35 62.7614,-35 65.2398,-35"/>
<polygon fill="black" stroke="black" points="75.4286,-35 65.4286,-39.5001 70.4286,-35 65.4286,-35.0001 65.4286,-35.0001 65.4286,-35.0001 70.4286,-35 65.4285,-30.5001 75.4286,-35 75.4286,-35"/>
</g>
<!-- m6&#45;&gt;s6 -->
<g id="edge25" class="edge"><title>m6&#45;&gt;s6</title>
<path fill="none" stroke="black" d="M190.578,-35C193.206,-35 195.834,-35 198.462,-35"/>
<polygon fill="black" stroke="black" points="208.598,-35 198.598,-39.5001 203.598,-35 198.598,-35.0001 198.598,-35.0001 198.598,-35.0001 203.598,-35 198.598,-30.5001 208.598,-35 208.598,-35"/>
</g>
<!-- s6&#45;&gt;s1 -->
<g id="edge29" class="edge"><title>s6&#45;&gt;s1</title>
<path fill="none" stroke="black" d="M247.556,-52.9634C255.949,-85.7489 273,-160.21 273,-224 273,-321 273,-321 273,-321 273,-368.769 260.079,-423.182 251.196,-454.943"/>
<polygon fill="black" stroke="black" points="248.363,-464.804 246.8,-453.95 249.744,-459.998 251.125,-455.193 251.125,-455.193 251.125,-455.193 249.744,-459.998 255.45,-456.436 248.363,-464.804 248.363,-464.804"/>
</g>
</g>
</svg>
